<svg width="397" height="160" viewBox="0 0 397 160" fill="none" xmlns="http://www.w3.org/2000/svg">
<path d="M50 20H26C22.6863 20 20 22.6863 20 26V50C20 53.3137 22.6863 56 26 56H50C53.3137 56 56 53.3137 56 50V26C56 22.6863 53.3137 20 50 20Z" fill="#009688"/>
<path d="M92 20H68C64.6863 20 62 22.6863 62 26V50C62 53.3137 64.6863 56 68 56H92C95.3137 56 98 53.3137 98 50V26C98 22.6863 95.3137 20 92 20Z" fill="#009688"/>
<path d="M134 20H110C106.686 20 104 22.6863 104 26V50C104 53.3137 106.686 56 110 56H134C137.314 56 140 53.3137 140 50V26C140 22.6863 137.314 20 134 20Z" fill="#009688"/>
<path d="M50 62H26C22.6863 62 20 64.6863 20 68V92C20 95.3137 22.6863 98 26 98H50C53.3137 98 56 95.3137 56 92V68C56 64.6863 53.3137 62 50 62Z" fill="#009688"/>
<path d="M92 62H68C64.6863 62 62 64.6863 62 68V92C62 95.3137 64.6863 98 68 98H92C95.3137 98 98 95.3137 98 92V68C98 64.6863 95.3137 62 92 62Z" fill="#F2D9BE"/>
<path d="M134 62H110C106.686 62 104 64.6863 104 68V92C104 95.3137 106.686 98 110 98H134C137.314 98 140 95.3137 140 92V68C140 64.6863 137.314 62 134 62Z" fill="#009688"/>
<path d="M50 104H26C22.6863 104 20 106.686 20 110V134C20 137.314 22.6863 140 26 140H50C53.3137 140 56 137.314 56 134V110C56 106.686 53.3137 104 50 104Z" fill="#009688"/>
<path d="M92 104H68C64.6863 104 62 106.686 62 110V134C62 137.314 64.6863 140 68 140H92C95.3137 140 98 137.314 98 134V110C98 106.686 95.3137 104 92 104Z" fill="#009688"/>
<path d="M134 104H110C106.686 104 104 106.686 104 110V134C104 137.314 106.686 140 110 140H134C137.314 140 140 137.314 140 134V110C140 106.686 137.314 104 134 104Z" fill="#009688"/>
<path d="M173.36 99V65.4H181.184L195.104 88.248H190.976L204.512 65.4H212.336L212.432 99H203.696L203.6 78.696H205.088L194.96 95.688H190.736L180.32 78.696H182.144V99H173.36ZM236.101 99.672C233.413 99.672 230.933 99.24 228.661 98.376C226.389 97.512 224.405 96.296 222.709 94.728C221.045 93.128 219.749 91.272 218.821 89.16C217.893 87.048 217.429 84.728 217.429 82.2C217.429 79.672 217.893 77.352 218.821 75.24C219.749 73.128 221.045 71.288 222.709 69.72C224.405 68.12 226.389 66.888 228.661 66.024C230.933 65.16 233.413 64.728 236.101 64.728C238.821 64.728 241.301 65.16 243.541 66.024C245.813 66.888 247.781 68.12 249.445 69.72C251.109 71.288 252.405 73.128 253.333 75.24C254.293 77.352 254.773 79.672 254.773 82.2C254.773 84.728 254.293 87.064 253.333 89.208C252.405 91.32 251.109 93.16 249.445 94.728C247.781 96.296 245.813 97.512 243.541 98.376C241.301 99.24 238.821 99.672 236.101 99.672ZM236.101 91.8C237.381 91.8 238.565 91.576 239.653 91.128C240.773 90.68 241.733 90.04 242.533 89.208C243.365 88.344 244.005 87.32 244.453 86.136C244.933 84.952 245.173 83.64 245.173 82.2C245.173 80.728 244.933 79.416 244.453 78.264C244.005 77.08 243.365 76.072 242.533 75.24C241.733 74.376 240.773 73.72 239.653 73.272C238.565 72.824 237.381 72.6 236.101 72.6C234.821 72.6 233.621 72.824 232.501 73.272C231.413 73.72 230.453 74.376 229.621 75.24C228.821 76.072 228.181 77.08 227.701 78.264C227.253 79.416 227.029 80.728 227.029 82.2C227.029 83.64 227.253 84.952 227.701 86.136C228.181 87.32 228.821 88.344 229.621 89.208C230.453 90.04 231.413 90.68 232.501 91.128C233.621 91.576 234.821 91.8 236.101 91.8ZM271.559 99.672C268.807 99.672 266.151 99.336 263.591 98.664C261.063 97.96 258.999 97.064 257.399 95.976L260.519 88.968C262.023 89.928 263.751 90.728 265.703 91.368C267.687 91.976 269.655 92.28 271.607 92.28C272.919 92.28 273.975 92.168 274.775 91.944C275.575 91.688 276.151 91.368 276.503 90.984C276.887 90.568 277.079 90.088 277.079 89.544C277.079 88.776 276.727 88.168 276.023 87.72C275.319 87.272 274.407 86.904 273.287 86.616C272.167 86.328 270.919 86.04 269.543 85.752C268.199 85.464 266.839 85.096 265.463 84.648C264.119 84.2 262.887 83.624 261.767 82.92C260.647 82.184 259.735 81.24 259.031 80.088C258.327 78.904 257.975 77.416 257.975 75.624C257.975 73.608 258.519 71.784 259.607 70.152C260.727 68.52 262.391 67.208 264.599 66.216C266.807 65.224 269.559 64.728 272.855 64.728C275.063 64.728 277.223 64.984 279.335 65.496C281.479 65.976 283.383 66.696 285.047 67.656L282.119 74.712C280.519 73.848 278.935 73.208 277.367 72.792C275.799 72.344 274.279 72.12 272.807 72.12C271.495 72.12 270.439 72.264 269.639 72.552C268.839 72.808 268.263 73.16 267.911 73.608C267.559 74.056 267.383 74.568 267.383 75.144C267.383 75.88 267.719 76.472 268.391 76.92C269.095 77.336 270.007 77.688 271.127 77.976C272.279 78.232 273.527 78.504 274.871 78.792C276.247 79.08 277.607 79.448 278.951 79.896C280.327 80.312 281.575 80.888 282.695 81.624C283.815 82.328 284.711 83.272 285.383 84.456C286.087 85.608 286.439 87.064 286.439 88.824C286.439 90.776 285.879 92.584 284.759 94.248C283.671 95.88 282.023 97.192 279.815 98.184C277.639 99.176 274.887 99.672 271.559 99.672ZM286.797 99L301.629 65.4H310.989L325.869 99H315.981L304.365 70.056H308.109L296.493 99H286.797ZM294.909 92.472L297.357 85.464H313.773L316.221 92.472H294.909ZM328.563 99V65.4H338.067V99H328.563ZM361.581 99.672C358.925 99.672 356.461 99.256 354.189 98.424C351.949 97.56 349.997 96.344 348.333 94.776C346.701 93.208 345.421 91.368 344.493 89.256C343.565 87.112 343.101 84.76 343.101 82.2C343.101 79.64 343.565 77.304 344.493 75.192C345.421 73.048 346.701 71.192 348.333 69.624C349.997 68.056 351.949 66.856 354.189 66.024C356.461 65.16 358.925 64.728 361.581 64.728C364.685 64.728 367.453 65.272 369.885 66.36C372.349 67.448 374.397 69.016 376.029 71.064L369.981 76.536C368.893 75.256 367.693 74.28 366.381 73.608C365.101 72.936 363.661 72.6 362.061 72.6C360.685 72.6 359.421 72.824 358.269 73.272C357.117 73.72 356.125 74.376 355.293 75.24C354.493 76.072 353.853 77.08 353.373 78.264C352.925 79.448 352.701 80.76 352.701 82.2C352.701 83.64 352.925 84.952 353.373 86.136C353.853 87.32 354.493 88.344 355.293 89.208C356.125 90.04 357.117 90.68 358.269 91.128C359.421 91.576 360.685 91.8 362.061 91.8C363.661 91.8 365.101 91.464 366.381 90.792C367.693 90.12 368.893 89.144 369.981 87.864L376.029 93.336C374.397 95.352 372.349 96.92 369.885 98.04C367.453 99.128 364.685 99.672 361.581 99.672Z" fill="#F2D9BE"/>
</svg>
