<svg width="170" height="170" viewBox="0 0 170 170" fill="none" xmlns="http://www.w3.org/2000/svg">
<path d="M54 20H26C22.6863 20 20 22.6863 20 26V54C20 57.3137 22.6863 60 26 60H54C57.3137 60 60 57.3137 60 54V26C60 22.6863 57.3137 20 54 20Z" fill="#009688"/>
<path d="M99 20H71C67.6863 20 65 22.6863 65 26V54C65 57.3137 67.6863 60 71 60H99C102.314 60 105 57.3137 105 54V26C105 22.6863 102.314 20 99 20Z" fill="#009688"/>
<path d="M144 20H116C112.686 20 110 22.6863 110 26V54C110 57.3137 112.686 60 116 60H144C147.314 60 150 57.3137 150 54V26C150 22.6863 147.314 20 144 20Z" fill="#009688"/>
<path d="M54 65H26C22.6863 65 20 67.6863 20 71V99C20 102.314 22.6863 105 26 105H54C57.3137 105 60 102.314 60 99V71C60 67.6863 57.3137 65 54 65Z" fill="#009688"/>
<path d="M99 65H71C67.6863 65 65 67.6863 65 71V99C65 102.314 67.6863 105 71 105H99C102.314 105 105 102.314 105 99V71C105 67.6863 102.314 65 99 65Z" fill="#F2D9BE"/>
<path d="M144 65H116C112.686 65 110 67.6863 110 71V99C110 102.314 112.686 105 116 105H144C147.314 105 150 102.314 150 99V71C150 67.6863 147.314 65 144 65Z" fill="#009688"/>
<path d="M54 110H26C22.6863 110 20 112.686 20 116V144C20 147.314 22.6863 150 26 150H54C57.3137 150 60 147.314 60 144V116C60 112.686 57.3137 110 54 110Z" fill="#009688"/>
<path d="M99 110H71C67.6863 110 65 112.686 65 116V144C65 147.314 67.6863 150 71 150H99C102.314 150 105 147.314 105 144V116C105 112.686 102.314 110 99 110Z" fill="#009688"/>
<path d="M144 110H116C112.686 110 110 112.686 110 116V144C110 147.314 112.686 150 116 150H144C147.314 150 150 147.314 150 144V116C150 112.686 147.314 110 144 110Z" fill="#009688"/>
</svg>
