<svg width="150" height="150" viewBox="0 0 150 150" fill="none" xmlns="http://www.w3.org/2000/svg">
<path d="M75 150C116.421 150 150 116.421 150 75C150 33.5786 116.421 0 75 0C33.5786 0 0 33.5786 0 75C0 116.421 33.5786 150 75 150Z" fill="url(#paint0_linear_236_429)"/>
<path d="M109.875 96.375C109.875 98.0326 109.217 99.6223 108.044 100.794C106.872 101.967 105.283 102.625 103.625 102.625H47.375C45.7174 102.625 44.1277 101.967 42.9556 100.794C41.7835 99.6223 41.125 98.0326 41.125 96.375V62C41.125 60.3424 41.7835 58.7527 42.9556 57.5806C44.1277 56.4085 45.7174 55.75 47.375 55.75H59.875L66.125 46.375H84.875L91.125 55.75H103.625C105.283 55.75 106.872 56.4085 108.044 57.5806C109.217 58.7527 109.875 60.3424 109.875 62V96.375Z" fill="#009688" fill-opacity="0.25"/>
<path d="M75.5 90.125C82.4036 90.125 88 84.5286 88 77.625C88 70.7214 82.4036 65.125 75.5 65.125C68.5964 65.125 63 70.7214 63 77.625C63 84.5286 68.5964 90.125 75.5 90.125Z" fill="#009688" fill-opacity="0.25"/>
<path d="M109.875 96.375C109.875 98.0326 109.217 99.6223 108.044 100.794C106.872 101.967 105.283 102.625 103.625 102.625H47.375C45.7174 102.625 44.1277 101.967 42.9556 100.794C41.7835 99.6223 41.125 98.0326 41.125 96.375V62C41.125 60.3424 41.7835 58.7527 42.9556 57.5806C44.1277 56.4085 45.7174 55.75 47.375 55.75H59.875L66.125 46.375H84.875L91.125 55.75H103.625C105.283 55.75 106.872 56.4085 108.044 57.5806C109.217 58.7527 109.875 60.3424 109.875 62V96.375Z" stroke="#009688" stroke-width="2" stroke-linecap="round" stroke-linejoin="round"/>
<path d="M75.5 90.125C82.4036 90.125 88 84.5286 88 77.625C88 70.7214 82.4036 65.125 75.5 65.125C68.5964 65.125 63 70.7214 63 77.625C63 84.5286 68.5964 90.125 75.5 90.125Z" stroke="#009688" stroke-width="2" stroke-linecap="round" stroke-linejoin="round"/>
<defs>
<linearGradient id="paint0_linear_236_429" x1="75" y1="0" x2="75" y2="150" gradientUnits="userSpaceOnUse">
<stop stop-color="#F5DDC7"/>
<stop offset="1" stop-color="#FAEADD"/>
</linearGradient>
</defs>
</svg>
